<?xml version="1.0" encoding="utf-8"?>
<!-- Generator: Adobe Illustrator 17.0.0, SVG Export Plug-In . SVG Version: 6.00 Build 0)  -->
<!DOCTYPE svg PUBLIC "-//W3C//DTD SVG 1.1//EN" "http://www.w3.org/Graphics/SVG/1.1/DTD/svg11.dtd">
<svg version="1.1" id="Layer_1" xmlns="http://www.w3.org/2000/svg" xmlns:xlink="http://www.w3.org/1999/xlink" x="0px" y="0px"
	 width="512px" height="512px" viewBox="0 0 512 512" enable-background="new 0 0 512 512" xml:space="preserve">
<g>
	<g>
		<g>
			<g>
				<g>
					<g>
						<g>
							<g>
								<path fill="#EB9783" d="M508.579,256.006c0-139.508-113.085-252.582-252.576-252.582
									C116.506,3.424,3.421,116.498,3.421,256.006c0,139.486,113.085,252.57,252.582,252.57
									C395.494,508.576,508.579,395.492,508.579,256.006z"/>
							</g>
						</g>
					</g>
				</g>
			</g>
		</g>
	</g>
	<g>
		<g>
			<g>
				<g>
					<g>
						<g>
							<g>
								<g>
									<path fill="#DBD5D2" d="M41.84,323.316h428.32c0-12.56-95.884-23.449-214.163-23.449
										C137.724,299.866,41.84,310.756,41.84,323.316z"/>
								</g>
							</g>
						</g>
					</g>
				</g>
			</g>
		</g>
		<g>
			<path fill="#EFAD78" d="M418.663,316.172c0,7.966-6.457,14.424-14.423,14.424H100.132c-7.966,0-14.425-6.458-14.425-14.424
				v-114.19c0-7.966,6.459-14.425,14.425-14.425H404.24c7.966,0,14.423,6.459,14.423,14.425V316.172z"/>
			<path fill="#D88D59" d="M418.663,316.172c0,7.966-6.457,14.424-14.423,14.424H100.132c-7.966,0-14.425-6.458-14.425-14.424
				v-9.944h332.956V316.172z"/>
			<path fill="#D36446" d="M418.663,279.078c0,0-9.987-4.412-87.365,0c-77.379,4.412-245.59,0-245.59,0v-18.327
				c0,0,5.819,7.296,107.123,0c101.305-7.297,225.832,0,225.832,0V279.078z"/>
			<g>
				<path fill="none" d="M356.483,238.19l-0.078,0.03c0.044,0.223,0.064,0.451,0.078,0.681V238.19z"/>
				<path fill="none" d="M148.162,236.839h-0.004c0.002,0.014,0.002,0.028,0.004,0.042V236.839z"/>
				<path fill="none" d="M134.644,236.839v0.44c0.012-0.147,0.028-0.294,0.052-0.44H134.644z"/>
				<g>
					<path fill="#EFE8E4" d="M404.24,187.557H100.132c-7.966,0-14.425,6.459-14.425,14.425v15.173h12.502v5.402
						c0,2.306,2.134,4.175,4.767,4.175c2.237,0,4.1-1.354,4.613-3.175v-5.707c0-3.302,3.06-5.983,6.829-5.983
						c3.774,0,6.831,2.681,6.831,5.983v16.651c0.451,2.878,3.241,5.103,6.652,5.103c3.563,0,6.451-2.428,6.698-5.494v-16.101
						c0-0.141,0.036-0.274,0.046-0.414v-0.44h0.052c0.477-2.894,3.295-5.128,6.731-5.128c3.44,0,6.256,2.234,6.731,5.128h0.004
						v0.042c0.044,0.268,0.093,0.534,0.093,0.811v30.111c0.581,3.59,4.094,6.355,8.354,6.355c4.665,0,8.445-3.312,8.445-7.397
						v-29.922h0.113c0.435-1.93,2.376-3.387,4.707-3.387c2.335,0,4.273,1.458,4.707,3.387h0.125v28.947
						c0,4.329,4.007,7.837,8.949,7.837c4.942,0,8.946-3.508,8.946-7.837v-28.947h0.038c0.046-1.527,1.468-2.755,3.221-2.755
						c1.772,0,3.204,1.249,3.225,2.795l0.097,0.051v15.126c0,4.073,3.77,7.376,8.42,7.376c4.16,0,7.604-2.645,8.288-6.117v-10.919
						c0-2.404,2.227-4.355,4.973-4.355c2.746,0,4.969,1.951,4.969,4.355v23.64c0,0.198-0.036,0.386-0.066,0.575v5.588
						c0,3.613,3.345,6.544,7.471,6.544c3.603,0,6.608-2.233,7.314-5.206v-15.399c0-4.631,4.285-8.386,9.573-8.386
						c5.29,0,9.573,3.754,9.573,8.386v29.512c0.139,5.041,4.836,9.092,10.625,9.092c5.874,0,10.635-4.172,10.635-9.316v-7.686
						c-0.006-0.076-0.026-0.145-0.026-0.221v-17.786c0-1.81,1.676-3.277,3.74-3.277c2.068,0,3.74,1.468,3.74,3.277v4.178l0.074-0.03
						v7.286c0,3.919,3.629,7.099,8.105,7.099c4.476,0,8.103-3.18,8.103-7.099v-13.887l0.026-0.011v-3.772
						c0-1.945,1.802-3.523,4.023-3.523c2.221,0,4.023,1.578,4.023,3.523v12.247c0.072,2.83,2.704,5.107,5.954,5.107
						c3.295,0,5.968-2.34,5.968-5.226v-16.487l0.078-0.032v-5.601c0-2.894,2.681-5.243,5.986-5.243c3.305,0,5.984,2.348,5.984,5.243
						v3.803c0.171,1.418,1.525,2.529,3.19,2.529c1.696,0,3.068-1.149,3.2-2.605v-10.014c0-3.239,2.999-5.866,6.697-5.866
						c3.309,0,6.039,2.106,6.582,4.869l0.078-0.031v0.712c0.008,0.106,0.038,0.207,0.038,0.316v10.051
						c0.185,1.879,1.967,3.36,4.16,3.36c2.319,0,4.196-1.646,4.196-3.677v-12.112h0.088v-0.603c0-1.593,1.475-2.885,3.295-2.885
						s3.295,1.293,3.295,2.885v15.668c0,0.109-0.024,0.213-0.038,0.318v2.927c0,2.278,2.108,4.124,4.709,4.124
						c2.599,0,4.707-1.846,4.707-4.124v-18.311h0.016v-1.434c0-1.134,1.05-2.054,2.344-2.054c1.295,0,2.345,0.92,2.345,2.054v1.434
						h0.07v29.54c0,3.243,3.001,5.871,6.702,5.871c3.466,0,6.282-2.31,6.632-5.263v-31.261c0-4.732,4.383-8.574,9.79-8.574
						c5.409,0,9.79,3.842,9.79,8.574v1.113h0.044v-15.173C418.663,194.016,412.206,187.557,404.24,187.557z"/>
				</g>
			</g>
		</g>
		<g>
			<g>
				<g>
					<g>
						<g>
							<g>
								<g>
									<path fill="#DBD5D2" d="M113.255,349.427c0,12.795,285.491,12.795,285.491,0c0-12.794-63.91-23.167-142.748-23.167
										C177.165,326.261,113.255,336.633,113.255,349.427z"/>
								</g>
							</g>
						</g>
					</g>
				</g>
			</g>
		</g>
		<g>
			<g>
				<g>
					<g>
						<g>
							<g>
								<g>
									<path fill="#EFE8E4" d="M470.16,322.783H41.84c0,12.56,95.884,23.451,214.163,23.451
										C374.276,346.234,470.16,335.342,470.16,322.783z"/>
								</g>
							</g>
						</g>
					</g>
				</g>
			</g>
		</g>
	</g>
	<g>
		<g>
			<g>
				<path fill="#117C2C" d="M294.151,205.098c-4.934,1.366-13.972-4.289-16.517-13.613c-2.547-9.323-0.616-17.969,4.323-19.324
					C293.873,168.904,294.151,205.098,294.151,205.098z"/>
			</g>
		</g>
		<g>
			<g>
				<path fill="#158938" d="M302.271,152.34c3.607,3.612,3.212,14.269-3.625,21.114c-6.821,6.844-15.296,9.458-18.915,5.839
					C270.989,170.57,302.271,152.34,302.271,152.34z"/>
			</g>
		</g>
		<g>
			<g>
				<g>
					<path fill="#E92C25" d="M237.412,199.559c-25.676-12.581-47.186-50.103-39.061-65.979c5.94-11.611,50.402-22.132,76.082-9.543
						c23.276,11.408,22.447,24.961,14.238,43.44c-0.245,0.535-3.305,4.639-4.938,7.954c-0.746,1.541-2.086,6.461-2.854,7.932
						C271.188,201.821,261.201,211.217,237.412,199.559z"/>
				</g>
			</g>
			<g>
				<g>
					<path fill="#A81E22" d="M276.592,150.839c-2.247-1.103-4.693-3.229-4.391-3.768c0.213-0.401,3.422,0.063,5.667,1.162
						c2.239,1.1,2.223,1.816,1.873,2.533C279.392,151.49,278.836,151.934,276.592,150.839z"/>
				</g>
			</g>
			<g>
				<g>
					<path fill="#A81E22" d="M266.962,136.586c-2.239-1.102-4.685-3.223-4.385-3.766c0.215-0.393,3.422,0.068,5.659,1.164
						c2.249,1.106,2.239,1.816,1.883,2.532C269.768,137.241,269.211,137.686,266.962,136.586z"/>
				</g>
			</g>
			<g>
				<g>
					<path fill="#A81E22" d="M282.94,140.743c-2.245-1.103-4.687-3.23-4.391-3.768c0.219-0.395,3.42,0.061,5.665,1.166
						c2.251,1.098,2.231,1.808,1.877,2.53C285.744,141.393,285.181,141.844,282.94,140.743z"/>
				</g>
			</g>
			<g>
				<g>
					<path fill="#A81E22" d="M276.304,168.317c-2.241-1.098-4.685-3.228-4.389-3.771c0.215-0.39,3.424,0.064,5.667,1.163
						c2.247,1.098,2.229,1.817,1.879,2.534C279.11,168.966,278.551,169.417,276.304,168.317z"/>
				</g>
			</g>
			<g>
				<g>
					<path fill="#A81E22" d="M267.208,156.301c-2.245-1.1-4.683-3.226-4.391-3.767c0.213-0.396,3.422,0.056,5.669,1.16
						c2.241,1.099,2.227,1.822,1.877,2.539C270.006,156.951,269.454,157.399,267.208,156.301z"/>
				</g>
			</g>
			<g>
				<g>
					<path fill="#A81E22" d="M258.161,145.362c-2.241-1.094-4.691-3.231-4.399-3.767c0.221-0.395,3.434,0.063,5.677,1.158
						c2.239,1.099,2.223,1.815,1.869,2.541C260.958,146.014,260.4,146.461,258.161,145.362z"/>
				</g>
			</g>
			<g>
				<g>
					<path fill="#A81E22" d="M255.446,160.077c-2.235-1.1-4.681-3.229-4.379-3.77c0.209-0.394,3.422,0.068,5.659,1.16
						c2.247,1.102,2.237,1.82,1.881,2.536C258.258,160.723,257.693,161.177,255.446,160.077z"/>
				</g>
			</g>
			<g>
				<g>
					<path fill="#A81E22" d="M253.84,182.752c-2.245-1.103-4.687-3.223-4.393-3.766c0.215-0.396,3.42,0.061,5.667,1.16
						c2.241,1.102,2.227,1.818,1.879,2.535C256.635,183.402,256.083,183.848,253.84,182.752z"/>
				</g>
			</g>
			<g>
				<g>
					<path fill="#A81E22" d="M256.12,195.467c-2.245-1.101-4.689-3.231-4.393-3.766c0.223-0.396,3.424,0.056,5.669,1.156
						c2.241,1.1,2.223,1.821,1.873,2.538C258.92,196.116,258.361,196.569,256.12,195.467z"/>
				</g>
			</g>
			<g>
				<g>
					<path fill="#A81E22" d="M245.838,170.346c-2.247-1.104-4.689-3.231-4.393-3.77c0.213-0.393,3.424,0.058,5.669,1.161
						c2.245,1.102,2.231,1.823,1.871,2.535C248.635,170.996,248.079,171.446,245.838,170.346z"/>
				</g>
			</g>
			<g>
				<g>
					<path fill="#A81E22" d="M250.077,132.263c-2.243-1.097-4.683-3.229-4.395-3.766c0.217-0.387,3.426,0.06,5.671,1.156
						c2.245,1.101,2.229,1.823,1.879,2.542C252.881,132.919,252.322,133.364,250.077,132.263z"/>
				</g>
			</g>
			<g>
				<g>
					<path fill="#A81E22" d="M239.412,134.673c-2.247-1.1-4.689-3.217-4.393-3.765c0.211-0.393,3.42,0.065,5.665,1.166
						c2.247,1.1,2.233,1.813,1.881,2.531C242.208,135.329,241.654,135.776,239.412,134.673z"/>
				</g>
			</g>
			<g>
				<g>
					<path fill="#A81E22" d="M244.658,146.175c-2.235-1.1-4.689-3.225-4.393-3.77c0.215-0.39,3.432,0.068,5.671,1.165
						c2.241,1.099,2.229,1.816,1.879,2.533C247.458,146.827,246.903,147.275,244.658,146.175z"/>
				</g>
			</g>
			<g>
				<g>
					<path fill="#A81E22" d="M226.797,136.329c-2.243-1.101-4.685-3.228-4.391-3.769c0.209-0.388,3.424,0.071,5.661,1.167
						c2.251,1.098,2.233,1.814,1.887,2.535C229.599,136.977,229.042,137.432,226.797,136.329z"/>
				</g>
			</g>
			<g>
				<g>
					<path fill="#A81E22" d="M211.893,140.703c-2.245-1.096-4.683-3.231-4.389-3.762c0.215-0.4,3.42,0.054,5.661,1.155
						c2.247,1.101,2.239,1.821,1.883,2.542C214.697,141.357,214.14,141.802,211.893,140.703z"/>
				</g>
			</g>
			<g>
				<g>
					<path fill="#A81E22" d="M233.982,148.418c-2.241-1.098-4.683-3.226-4.385-3.76c0.209-0.404,3.422,0.056,5.667,1.155
						c2.241,1.102,2.223,1.822,1.873,2.538C236.788,149.07,236.227,149.52,233.982,148.418z"/>
				</g>
			</g>
			<g>
				<g>
					<path fill="#A81E22" d="M220.058,149.592c-2.241-1.098-4.685-3.229-4.385-3.765c0.211-0.392,3.426,0.064,5.665,1.157
						c2.249,1.106,2.233,1.826,1.877,2.542C222.864,150.243,222.303,150.694,220.058,149.592z"/>
				</g>
			</g>
			<g>
				<g>
					<path fill="#A81E22" d="M241.264,159.628c-2.243-1.1-4.687-3.228-4.389-3.766c0.213-0.4,3.426,0.057,5.665,1.155
						c2.251,1.099,2.235,1.816,1.875,2.541C244.07,160.278,243.511,160.725,241.264,159.628z"/>
				</g>
			</g>
			<g>
				<g>
					<path fill="#A81E22" d="M229.265,161.38c-2.241-1.098-4.683-3.229-4.387-3.764c0.219-0.398,3.426,0.056,5.665,1.155
						c2.251,1.105,2.227,1.82,1.877,2.539C232.073,162.03,231.516,162.477,229.265,161.38z"/>
				</g>
			</g>
			<g>
				<g>
					<path fill="#A81E22" d="M221.856,167.156c-2.241-1.1-4.689-3.227-4.393-3.768c0.221-0.396,3.43,0.062,5.669,1.16
						c2.245,1.103,2.227,1.822,1.879,2.54C224.657,167.805,224.101,168.26,221.856,167.156z"/>
				</g>
			</g>
			<g>
				<g>
					<path fill="#A81E22" d="M211.63,155.283c-2.247-1.105-4.689-3.233-4.387-3.77c0.215-0.398,3.42,0.058,5.665,1.159
						c2.245,1.101,2.233,1.817,1.873,2.539C214.43,155.93,213.876,156.383,211.63,155.283z"/>
				</g>
			</g>
			<g>
				<g>
					<path fill="#A81E22" d="M223.295,178.248c-2.245-1.101-4.691-3.223-4.389-3.767c0.213-0.398,3.432,0.058,5.667,1.157
						c2.241,1.101,2.227,1.822,1.879,2.541C226.101,178.896,225.538,179.348,223.295,178.248z"/>
				</g>
			</g>
			<g>
				<g>
					<path fill="#A81E22" d="M238.774,188.098c-2.245-1.104-4.687-3.231-4.397-3.773c0.219-0.395,3.424,0.073,5.671,1.169
						c2.243,1.099,2.233,1.816,1.877,2.532C241.572,188.752,241.013,189.198,238.774,188.098z"/>
				</g>
			</g>
			<g>
				<g>
					<path fill="#A81E22" d="M236.911,175.87c-2.253-1.104-4.691-3.228-4.397-3.774c0.217-0.389,3.42,0.062,5.673,1.163
						c2.241,1.099,2.229,1.821,1.879,2.541C239.709,176.518,239.146,176.964,236.911,175.87z"/>
				</g>
			</g>
			<g>
				<g>
					<path fill="#A81E22" d="M263.977,172.243c-2.241-1.1-4.689-3.219-4.399-3.76c0.219-0.4,3.432,0.061,5.673,1.162
						c2.243,1.099,2.231,1.813,1.877,2.538C266.779,172.903,266.222,173.345,263.977,172.243z"/>
				</g>
			</g>
			<g>
				<g>
					<path fill="#A81E22" d="M268.103,183.883c-2.241-1.1-4.695-3.222-4.395-3.767c0.211-0.388,3.422,0.067,5.663,1.167
						c2.249,1.096,2.235,1.814,1.881,2.527C270.899,184.537,270.348,184.986,268.103,183.883z"/>
				</g>
			</g>
		</g>
		<g>
			<g>
				<path fill="#1D9E49" d="M314.55,174.962c-0.115,5.118-8.094,12.171-17.778,11.943c-9.642-0.216-17.38-4.529-17.271-9.657
					C279.778,164.903,314.55,174.962,314.55,174.962z"/>
			</g>
		</g>
	</g>
</g>
</svg>
