<?xml version="1.0" encoding="UTF-8" standalone="no"?>
<!-- Generator: Adobe Illustrator 17.0.0, SVG Export Plug-In . SVG Version: 6.00 Build 0)  -->

<svg
   xmlns:dc="http://purl.org/dc/elements/1.1/"
   xmlns:cc="http://creativecommons.org/ns#"
   xmlns:rdf="http://www.w3.org/1999/02/22-rdf-syntax-ns#"
   xmlns:svg="http://www.w3.org/2000/svg"
   xmlns="http://www.w3.org/2000/svg"
   xmlns:sodipodi="http://sodipodi.sourceforge.net/DTD/sodipodi-0.dtd"
   xmlns:inkscape="http://www.inkscape.org/namespaces/inkscape"
   version="1.1"
   id="Layer_1"
   x="0px"
   y="0px"
   width="100"
   height="100.99848"
   viewBox="0 0 100 100.99848"
   enable-background="new 0 0 512 512"
   xml:space="preserve"
   sodipodi:docname="logoII.svg"
   inkscape:version="0.92.5 (2060ec1f9f, 2020-04-08)"><metadata
   id="metadata4269"><rdf:RDF><cc:Work
       rdf:about=""><dc:format>image/svg+xml</dc:format><dc:type
         rdf:resource="http://purl.org/dc/dcmitype/StillImage" /><dc:title></dc:title></cc:Work></rdf:RDF></metadata><defs
   id="defs4267" /><sodipodi:namedview
   pagecolor="#ffffff"
   bordercolor="#666666"
   borderopacity="1"
   objecttolerance="10"
   gridtolerance="10"
   guidetolerance="10"
   inkscape:pageopacity="0"
   inkscape:pageshadow="2"
   inkscape:window-width="1920"
   inkscape:window-height="986"
   id="namedview4265"
   showgrid="false"
   inkscape:zoom="1.4902344"
   inkscape:cx="246.227"
   inkscape:cy="-144.00593"
   inkscape:window-x="-11"
   inkscape:window-y="-11"
   inkscape:window-maximized="1"
   inkscape:current-layer="Layer_1"
   fit-margin-top="0"
   fit-margin-left="0"
   fit-margin-right="0"
   fit-margin-bottom="0" />

<g
   id="g4541"
   transform="matrix(0.19795787,0,0,0.19993682,-0.67721387,-0.68458367)">
	<g
   id="g4285">
		<g
   id="g4283">
			<g
   id="g4281">
				<g
   id="g4279">
					<g
   id="g4277">
						<g
   id="g4275">
							<g
   id="g4273">
								<path
   id="path4271"
   d="M 508.579,256.006 C 508.579,116.498 395.494,3.424 256.003,3.424 116.506,3.424 3.421,116.498 3.421,256.006 c 0,139.486 113.085,252.57 252.582,252.57 139.491,0 252.576,-113.084 252.576,-252.57 z"
   inkscape:connector-curvature="0"
   style="fill:#eb9783" />
							</g>
						</g>
					</g>
				</g>
			</g>
		</g>
	</g>
	<g
   id="g4355">
		<g
   id="g4301">
			<g
   id="g4299">
				<g
   id="g4297">
					<g
   id="g4295">
						<g
   id="g4293">
							<g
   id="g4291">
								<g
   id="g4289">
									<path
   id="path4287"
   d="m 41.84,323.316 h 428.32 c 0,-12.56 -95.884,-23.449 -214.163,-23.449 C 137.724,299.866 41.84,310.756 41.84,323.316 Z"
   inkscape:connector-curvature="0"
   style="fill:#dbd5d2" />
								</g>
							</g>
						</g>
					</g>
				</g>
			</g>
		</g>
		<g
   id="g4321">
			<path
   id="path4303"
   d="m 418.663,316.172 c 0,7.966 -6.457,14.424 -14.423,14.424 H 100.132 c -7.966,0 -14.425,-6.458 -14.425,-14.424 v -114.19 c 0,-7.966 6.459,-14.425 14.425,-14.425 H 404.24 c 7.966,0 14.423,6.459 14.423,14.425 z"
   inkscape:connector-curvature="0"
   style="fill:#efad78" />
			<path
   id="path4305"
   d="m 418.663,316.172 c 0,7.966 -6.457,14.424 -14.423,14.424 H 100.132 c -7.966,0 -14.425,-6.458 -14.425,-14.424 v -9.944 h 332.956 z"
   inkscape:connector-curvature="0"
   style="fill:#d88d59" />
			<path
   id="path4307"
   d="m 418.663,279.078 c 0,0 -9.987,-4.412 -87.365,0 -77.379,4.412 -245.59,0 -245.59,0 v -18.327 c 0,0 5.819,7.296 107.123,0 101.305,-7.297 225.832,0 225.832,0 z"
   inkscape:connector-curvature="0"
   style="fill:#d36446" />
			<g
   id="g4319">
				<path
   id="path4309"
   d="m 356.483,238.19 -0.078,0.03 c 0.044,0.223 0.064,0.451 0.078,0.681 z"
   inkscape:connector-curvature="0"
   style="fill:none" />
				<path
   id="path4311"
   d="m 148.162,236.839 h -0.004 c 0.002,0.014 0.002,0.028 0.004,0.042 z"
   inkscape:connector-curvature="0"
   style="fill:none" />
				<path
   id="path4313"
   d="m 134.644,236.839 v 0.44 c 0.012,-0.147 0.028,-0.294 0.052,-0.44 z"
   inkscape:connector-curvature="0"
   style="fill:none" />
				<g
   id="g4317">
					<path
   id="path4315"
   d="M 404.24,187.557 H 100.132 c -7.966,0 -14.425,6.459 -14.425,14.425 v 15.173 h 12.502 v 5.402 c 0,2.306 2.134,4.175 4.767,4.175 2.237,0 4.1,-1.354 4.613,-3.175 v -5.707 c 0,-3.302 3.06,-5.983 6.829,-5.983 3.774,0 6.831,2.681 6.831,5.983 v 16.651 c 0.451,2.878 3.241,5.103 6.652,5.103 3.563,0 6.451,-2.428 6.698,-5.494 v -16.101 c 0,-0.141 0.036,-0.274 0.046,-0.414 v -0.44 h 0.052 c 0.477,-2.894 3.295,-5.128 6.731,-5.128 3.44,0 6.256,2.234 6.731,5.128 h 0.004 v 0.042 c 0.044,0.268 0.093,0.534 0.093,0.811 v 30.111 c 0.581,3.59 4.094,6.355 8.354,6.355 4.665,0 8.445,-3.312 8.445,-7.397 v -29.922 h 0.113 c 0.435,-1.93 2.376,-3.387 4.707,-3.387 2.335,0 4.273,1.458 4.707,3.387 h 0.125 v 28.947 c 0,4.329 4.007,7.837 8.949,7.837 4.942,0 8.946,-3.508 8.946,-7.837 v -28.947 h 0.038 c 0.046,-1.527 1.468,-2.755 3.221,-2.755 1.772,0 3.204,1.249 3.225,2.795 l 0.097,0.051 v 15.126 c 0,4.073 3.77,7.376 8.42,7.376 4.16,0 7.604,-2.645 8.288,-6.117 v -10.919 c 0,-2.404 2.227,-4.355 4.973,-4.355 2.746,0 4.969,1.951 4.969,4.355 v 23.64 c 0,0.198 -0.036,0.386 -0.066,0.575 v 5.588 c 0,3.613 3.345,6.544 7.471,6.544 3.603,0 6.608,-2.233 7.314,-5.206 v -15.399 c 0,-4.631 4.285,-8.386 9.573,-8.386 5.29,0 9.573,3.754 9.573,8.386 v 29.512 c 0.139,5.041 4.836,9.092 10.625,9.092 5.874,0 10.635,-4.172 10.635,-9.316 v -7.686 c -0.006,-0.076 -0.026,-0.145 -0.026,-0.221 v -17.786 c 0,-1.81 1.676,-3.277 3.74,-3.277 2.068,0 3.74,1.468 3.74,3.277 v 4.178 l 0.074,-0.03 v 7.286 c 0,3.919 3.629,7.099 8.105,7.099 4.476,0 8.103,-3.18 8.103,-7.099 v -13.887 l 0.026,-0.011 v -3.772 c 0,-1.945 1.802,-3.523 4.023,-3.523 2.221,0 4.023,1.578 4.023,3.523 v 12.247 c 0.072,2.83 2.704,5.107 5.954,5.107 3.295,0 5.968,-2.34 5.968,-5.226 v -16.487 l 0.078,-0.032 v -5.601 c 0,-2.894 2.681,-5.243 5.986,-5.243 3.305,0 5.984,2.348 5.984,5.243 v 3.803 c 0.171,1.418 1.525,2.529 3.19,2.529 1.696,0 3.068,-1.149 3.2,-2.605 v -10.014 c 0,-3.239 2.999,-5.866 6.697,-5.866 3.309,0 6.039,2.106 6.582,4.869 l 0.078,-0.031 v 0.712 c 0.008,0.106 0.038,0.207 0.038,0.316 v 10.051 c 0.185,1.879 1.967,3.36 4.16,3.36 2.319,0 4.196,-1.646 4.196,-3.677 v -12.112 h 0.088 v -0.603 c 0,-1.593 1.475,-2.885 3.295,-2.885 1.82,0 3.295,1.293 3.295,2.885 v 15.668 c 0,0.109 -0.024,0.213 -0.038,0.318 v 2.927 c 0,2.278 2.108,4.124 4.709,4.124 2.599,0 4.707,-1.846 4.707,-4.124 v -18.311 h 0.016 v -1.434 c 0,-1.134 1.05,-2.054 2.344,-2.054 1.295,0 2.345,0.92 2.345,2.054 v 1.434 h 0.07 v 29.54 c 0,3.243 3.001,5.871 6.702,5.871 3.466,0 6.282,-2.31 6.632,-5.263 v -31.261 c 0,-4.732 4.383,-8.574 9.79,-8.574 5.409,0 9.79,3.842 9.79,8.574 v 1.113 h 0.044 v -15.173 c -0.003,-7.966 -6.46,-14.425 -14.426,-14.425 z"
   inkscape:connector-curvature="0"
   style="fill:#efe8e4" />
				</g>
			</g>
		</g>
		<g
   id="g4337">
			<g
   id="g4335">
				<g
   id="g4333">
					<g
   id="g4331">
						<g
   id="g4329">
							<g
   id="g4327">
								<g
   id="g4325">
									<path
   id="path4323"
   d="m 113.255,349.427 c 0,12.795 285.491,12.795 285.491,0 0,-12.794 -63.91,-23.167 -142.748,-23.167 -78.833,0.001 -142.743,10.373 -142.743,23.167 z"
   inkscape:connector-curvature="0"
   style="fill:#dbd5d2" />
								</g>
							</g>
						</g>
					</g>
				</g>
			</g>
		</g>
		<g
   id="g4353">
			<g
   id="g4351">
				<g
   id="g4349">
					<g
   id="g4347">
						<g
   id="g4345">
							<g
   id="g4343">
								<g
   id="g4341">
									<path
   id="path4339"
   d="M 470.16,322.783 H 41.84 c 0,12.56 95.884,23.451 214.163,23.451 118.273,0 214.157,-10.892 214.157,-23.451 z"
   inkscape:connector-curvature="0"
   style="fill:#efe8e4" />
								</g>
							</g>
						</g>
					</g>
				</g>
			</g>
		</g>
	</g>
	<g
   id="g4539">
		<g
   id="g4361">
			<g
   id="g4359">
				<path
   id="path4357"
   d="m 294.151,205.098 c -4.934,1.366 -13.972,-4.289 -16.517,-13.613 -2.547,-9.323 -0.616,-17.969 4.323,-19.324 11.916,-3.257 12.194,32.937 12.194,32.937 z"
   inkscape:connector-curvature="0"
   style="fill:#117c2c" />
			</g>
		</g>
		<g
   id="g4367">
			<g
   id="g4365">
				<path
   id="path4363"
   d="m 302.271,152.34 c 3.607,3.612 3.212,14.269 -3.625,21.114 -6.821,6.844 -15.296,9.458 -18.915,5.839 -8.742,-8.723 22.54,-26.953 22.54,-26.953 z"
   inkscape:connector-curvature="0"
   style="fill:#158938" />
			</g>
		</g>
		<g
   id="g4531">
			<g
   id="g4373">
				<g
   id="g4371">
					<path
   id="path4369"
   d="m 237.412,199.559 c -25.676,-12.581 -47.186,-50.103 -39.061,-65.979 5.94,-11.611 50.402,-22.132 76.082,-9.543 23.276,11.408 22.447,24.961 14.238,43.44 -0.245,0.535 -3.305,4.639 -4.938,7.954 -0.746,1.541 -2.086,6.461 -2.854,7.932 -9.691,18.458 -19.678,27.854 -43.467,16.196 z"
   inkscape:connector-curvature="0"
   style="fill:#e92c25" />
				</g>
			</g>
			<g
   id="g4379">
				<g
   id="g4377">
					<path
   id="path4375"
   d="m 276.592,150.839 c -2.247,-1.103 -4.693,-3.229 -4.391,-3.768 0.213,-0.401 3.422,0.063 5.667,1.162 2.239,1.1 2.223,1.816 1.873,2.533 -0.349,0.724 -0.905,1.168 -3.149,0.073 z"
   inkscape:connector-curvature="0"
   style="fill:#a81e22" />
				</g>
			</g>
			<g
   id="g4385">
				<g
   id="g4383">
					<path
   id="path4381"
   d="m 266.962,136.586 c -2.239,-1.102 -4.685,-3.223 -4.385,-3.766 0.215,-0.393 3.422,0.068 5.659,1.164 2.249,1.106 2.239,1.816 1.883,2.532 -0.351,0.725 -0.908,1.17 -3.157,0.07 z"
   inkscape:connector-curvature="0"
   style="fill:#a81e22" />
				</g>
			</g>
			<g
   id="g4391">
				<g
   id="g4389">
					<path
   id="path4387"
   d="m 282.94,140.743 c -2.245,-1.103 -4.687,-3.23 -4.391,-3.768 0.219,-0.395 3.42,0.061 5.665,1.166 2.251,1.098 2.231,1.808 1.877,2.53 -0.347,0.722 -0.91,1.173 -3.151,0.072 z"
   inkscape:connector-curvature="0"
   style="fill:#a81e22" />
				</g>
			</g>
			<g
   id="g4397">
				<g
   id="g4395">
					<path
   id="path4393"
   d="m 276.304,168.317 c -2.241,-1.098 -4.685,-3.228 -4.389,-3.771 0.215,-0.39 3.424,0.064 5.667,1.163 2.247,1.098 2.229,1.817 1.879,2.534 -0.351,0.723 -0.91,1.174 -3.157,0.074 z"
   inkscape:connector-curvature="0"
   style="fill:#a81e22" />
				</g>
			</g>
			<g
   id="g4403">
				<g
   id="g4401">
					<path
   id="path4399"
   d="m 267.208,156.301 c -2.245,-1.1 -4.683,-3.226 -4.391,-3.767 0.213,-0.396 3.422,0.056 5.669,1.16 2.241,1.099 2.227,1.822 1.877,2.539 -0.357,0.718 -0.909,1.166 -3.155,0.068 z"
   inkscape:connector-curvature="0"
   style="fill:#a81e22" />
				</g>
			</g>
			<g
   id="g4409">
				<g
   id="g4407">
					<path
   id="path4405"
   d="m 258.161,145.362 c -2.241,-1.094 -4.691,-3.231 -4.399,-3.767 0.221,-0.395 3.434,0.063 5.677,1.158 2.239,1.099 2.223,1.815 1.869,2.541 -0.35,0.72 -0.908,1.167 -3.147,0.068 z"
   inkscape:connector-curvature="0"
   style="fill:#a81e22" />
				</g>
			</g>
			<g
   id="g4415">
				<g
   id="g4413">
					<path
   id="path4411"
   d="m 255.446,160.077 c -2.235,-1.1 -4.681,-3.229 -4.379,-3.77 0.209,-0.394 3.422,0.068 5.659,1.16 2.247,1.102 2.237,1.82 1.881,2.536 -0.349,0.72 -0.914,1.174 -3.161,0.074 z"
   inkscape:connector-curvature="0"
   style="fill:#a81e22" />
				</g>
			</g>
			<g
   id="g4421">
				<g
   id="g4419">
					<path
   id="path4417"
   d="m 253.84,182.752 c -2.245,-1.103 -4.687,-3.223 -4.393,-3.766 0.215,-0.396 3.42,0.061 5.667,1.16 2.241,1.102 2.227,1.818 1.879,2.535 -0.358,0.721 -0.91,1.167 -3.153,0.071 z"
   inkscape:connector-curvature="0"
   style="fill:#a81e22" />
				</g>
			</g>
			<g
   id="g4427">
				<g
   id="g4425">
					<path
   id="path4423"
   d="m 256.12,195.467 c -2.245,-1.101 -4.689,-3.231 -4.393,-3.766 0.223,-0.396 3.424,0.056 5.669,1.156 2.241,1.1 2.223,1.821 1.873,2.538 -0.349,0.721 -0.908,1.174 -3.149,0.072 z"
   inkscape:connector-curvature="0"
   style="fill:#a81e22" />
				</g>
			</g>
			<g
   id="g4433">
				<g
   id="g4431">
					<path
   id="path4429"
   d="m 245.838,170.346 c -2.247,-1.104 -4.689,-3.231 -4.393,-3.77 0.213,-0.393 3.424,0.058 5.669,1.161 2.245,1.102 2.231,1.823 1.871,2.535 -0.35,0.724 -0.906,1.174 -3.147,0.074 z"
   inkscape:connector-curvature="0"
   style="fill:#a81e22" />
				</g>
			</g>
			<g
   id="g4439">
				<g
   id="g4437">
					<path
   id="path4435"
   d="m 250.077,132.263 c -2.243,-1.097 -4.683,-3.229 -4.395,-3.766 0.217,-0.387 3.426,0.06 5.671,1.156 2.245,1.101 2.229,1.823 1.879,2.542 -0.351,0.724 -0.91,1.169 -3.155,0.068 z"
   inkscape:connector-curvature="0"
   style="fill:#a81e22" />
				</g>
			</g>
			<g
   id="g4445">
				<g
   id="g4443">
					<path
   id="path4441"
   d="m 239.412,134.673 c -2.247,-1.1 -4.689,-3.217 -4.393,-3.765 0.211,-0.393 3.42,0.065 5.665,1.166 2.247,1.1 2.233,1.813 1.881,2.531 -0.357,0.724 -0.911,1.171 -3.153,0.068 z"
   inkscape:connector-curvature="0"
   style="fill:#a81e22" />
				</g>
			</g>
			<g
   id="g4451">
				<g
   id="g4449">
					<path
   id="path4447"
   d="m 244.658,146.175 c -2.235,-1.1 -4.689,-3.225 -4.393,-3.77 0.215,-0.39 3.432,0.068 5.671,1.165 2.241,1.099 2.229,1.816 1.879,2.533 -0.357,0.724 -0.912,1.172 -3.157,0.072 z"
   inkscape:connector-curvature="0"
   style="fill:#a81e22" />
				</g>
			</g>
			<g
   id="g4457">
				<g
   id="g4455">
					<path
   id="path4453"
   d="m 226.797,136.329 c -2.243,-1.101 -4.685,-3.228 -4.391,-3.769 0.209,-0.388 3.424,0.071 5.661,1.167 2.251,1.098 2.233,1.814 1.887,2.535 -0.355,0.715 -0.912,1.17 -3.157,0.067 z"
   inkscape:connector-curvature="0"
   style="fill:#a81e22" />
				</g>
			</g>
			<g
   id="g4463">
				<g
   id="g4461">
					<path
   id="path4459"
   d="m 211.893,140.703 c -2.245,-1.096 -4.683,-3.231 -4.389,-3.762 0.215,-0.4 3.42,0.054 5.661,1.155 2.247,1.101 2.239,1.821 1.883,2.542 -0.351,0.719 -0.908,1.164 -3.155,0.065 z"
   inkscape:connector-curvature="0"
   style="fill:#a81e22" />
				</g>
			</g>
			<g
   id="g4469">
				<g
   id="g4467">
					<path
   id="path4465"
   d="m 233.982,148.418 c -2.241,-1.098 -4.683,-3.226 -4.385,-3.76 0.209,-0.404 3.422,0.056 5.667,1.155 2.241,1.102 2.223,1.822 1.873,2.538 -0.349,0.719 -0.91,1.169 -3.155,0.067 z"
   inkscape:connector-curvature="0"
   style="fill:#a81e22" />
				</g>
			</g>
			<g
   id="g4475">
				<g
   id="g4473">
					<path
   id="path4471"
   d="m 220.058,149.592 c -2.241,-1.098 -4.685,-3.229 -4.385,-3.765 0.211,-0.392 3.426,0.064 5.665,1.157 2.249,1.106 2.233,1.826 1.877,2.542 -0.351,0.717 -0.912,1.168 -3.157,0.066 z"
   inkscape:connector-curvature="0"
   style="fill:#a81e22" />
				</g>
			</g>
			<g
   id="g4481">
				<g
   id="g4479">
					<path
   id="path4477"
   d="m 241.264,159.628 c -2.243,-1.1 -4.687,-3.228 -4.389,-3.766 0.213,-0.4 3.426,0.057 5.665,1.155 2.251,1.099 2.235,1.816 1.875,2.541 -0.345,0.72 -0.904,1.167 -3.151,0.07 z"
   inkscape:connector-curvature="0"
   style="fill:#a81e22" />
				</g>
			</g>
			<g
   id="g4487">
				<g
   id="g4485">
					<path
   id="path4483"
   d="m 229.265,161.38 c -2.241,-1.098 -4.683,-3.229 -4.387,-3.764 0.219,-0.398 3.426,0.056 5.665,1.155 2.251,1.105 2.227,1.82 1.877,2.539 -0.347,0.72 -0.904,1.167 -3.155,0.07 z"
   inkscape:connector-curvature="0"
   style="fill:#a81e22" />
				</g>
			</g>
			<g
   id="g4493">
				<g
   id="g4491">
					<path
   id="path4489"
   d="m 221.856,167.156 c -2.241,-1.1 -4.689,-3.227 -4.393,-3.768 0.221,-0.396 3.43,0.062 5.669,1.16 2.245,1.103 2.227,1.822 1.879,2.54 -0.354,0.717 -0.91,1.172 -3.155,0.068 z"
   inkscape:connector-curvature="0"
   style="fill:#a81e22" />
				</g>
			</g>
			<g
   id="g4499">
				<g
   id="g4497">
					<path
   id="path4495"
   d="m 211.63,155.283 c -2.247,-1.105 -4.689,-3.233 -4.387,-3.77 0.215,-0.398 3.42,0.058 5.665,1.159 2.245,1.101 2.233,1.817 1.873,2.539 -0.351,0.719 -0.905,1.172 -3.151,0.072 z"
   inkscape:connector-curvature="0"
   style="fill:#a81e22" />
				</g>
			</g>
			<g
   id="g4505">
				<g
   id="g4503">
					<path
   id="path4501"
   d="m 223.295,178.248 c -2.245,-1.101 -4.691,-3.223 -4.389,-3.767 0.213,-0.398 3.432,0.058 5.667,1.157 2.241,1.101 2.227,1.822 1.879,2.541 -0.351,0.717 -0.914,1.169 -3.157,0.069 z"
   inkscape:connector-curvature="0"
   style="fill:#a81e22" />
				</g>
			</g>
			<g
   id="g4511">
				<g
   id="g4509">
					<path
   id="path4507"
   d="m 238.774,188.098 c -2.245,-1.104 -4.687,-3.231 -4.397,-3.773 0.219,-0.395 3.424,0.073 5.671,1.169 2.243,1.099 2.233,1.816 1.877,2.532 -0.353,0.726 -0.912,1.172 -3.151,0.072 z"
   inkscape:connector-curvature="0"
   style="fill:#a81e22" />
				</g>
			</g>
			<g
   id="g4517">
				<g
   id="g4515">
					<path
   id="path4513"
   d="m 236.911,175.87 c -2.253,-1.104 -4.691,-3.228 -4.397,-3.774 0.217,-0.389 3.42,0.062 5.673,1.163 2.241,1.099 2.229,1.821 1.879,2.541 -0.357,0.718 -0.92,1.164 -3.155,0.07 z"
   inkscape:connector-curvature="0"
   style="fill:#a81e22" />
				</g>
			</g>
			<g
   id="g4523">
				<g
   id="g4521">
					<path
   id="path4519"
   d="m 263.977,172.243 c -2.241,-1.1 -4.689,-3.219 -4.399,-3.76 0.219,-0.4 3.432,0.061 5.673,1.162 2.243,1.099 2.231,1.813 1.877,2.538 -0.349,0.72 -0.906,1.162 -3.151,0.06 z"
   inkscape:connector-curvature="0"
   style="fill:#a81e22" />
				</g>
			</g>
			<g
   id="g4529">
				<g
   id="g4527">
					<path
   id="path4525"
   d="m 268.103,183.883 c -2.241,-1.1 -4.695,-3.222 -4.395,-3.767 0.211,-0.388 3.422,0.067 5.663,1.167 2.249,1.096 2.235,1.814 1.881,2.527 -0.353,0.727 -0.904,1.176 -3.149,0.073 z"
   inkscape:connector-curvature="0"
   style="fill:#a81e22" />
				</g>
			</g>
		</g>
		<g
   id="g4537">
			<g
   id="g4535">
				<path
   id="path4533"
   d="m 314.55,174.962 c -0.115,5.118 -8.094,12.171 -17.778,11.943 -9.642,-0.216 -17.38,-4.529 -17.271,-9.657 0.277,-12.345 35.049,-2.286 35.049,-2.286 z"
   inkscape:connector-curvature="0"
   style="fill:#1d9e49" />
			</g>
		</g>
	</g>
</g></svg>